HIERARCHY
ROOT pelvis
{
  OFFSET 0 100 0
  CHANNELS 6 Xposition Yposition Zposition Zrotation Xrotation Yrotation
  JOINT pelvis_right_femur
  {
    OFFSET -10.78128 -3.44521 -0.5502486
    CHANNELS 3 Zrotation Xrotation Yrotation
    JOINT right_femur_tibia
    {
      OFFSET -0.8047443 -44.0398 -0.1307829
      CHANNELS 3 Zrotation Xrotation Yrotation
      JOINT right_tibia_foot
      {
        OFFSET 3.006224 -47.83518 -5
        CHANNELS 3 Zrotation Xrotation Yrotation
        End Site
        {
          OFFSET 0 -5 15
        }
      }
    }
  }
  JOINT pelvis_left_femur
  {
    OFFSET 10.78128 -3.44521 -0.5502486
    CHANNELS 3 Zrotation Xrotation Yrotation
    JOINT left_femur_tibia
    {
      OFFSET 0.8047443 -44.0398 -0.1307829
      CHANNELS 3 Zrotation Xrotation Yrotation
      JOINT left_tibia_foot
      {
        OFFSET -4.370144 -48.10324 -4.275266
        CHANNELS 3 Zrotation Xrotation Yrotation
        End Site
        {
          OFFSET 0 -5 15
        }
      }
    }
  }
  JOINT pelvis_spine1
  {
    OFFSET 0 6.468898 -3.129235
    CHANNELS 3 Zrotation Xrotation Yrotation
    JOINT spine1
    {
      OFFSET 0 23.15396 4.99043
      CHANNELS 3 Zrotation Xrotation Yrotation
      JOINT spine2
      {
        OFFSET 0 20.79997 -5.064912
        CHANNELS 3 Zrotation Xrotation Yrotation
        JOINT neck
        {
          OFFSET 0 14.38658 9.616178
          CHANNELS 3 Zrotation Xrotation Yrotation
          End Site
          {
            OFFSET 0 20 0
          }
        }
      }
      JOINT right_manubrium
      {
        OFFSET -5.722621 16.35077 3.967754
        CHANNELS 3 Zrotation Xrotation Yrotation
        JOINT right_clavicle
        {
          OFFSET -13.16364 1.694482 -4.693211
          CHANNELS 3 Zrotation Xrotation Yrotation
          JOINT right_humerus
          {
            OFFSET -28.5034 -0.3100689 -2.792744
            CHANNELS 3 Zrotation Xrotation Yrotation
            JOINT right_radius
            {
              OFFSET -25.15693 0.02248979 -1.271978
              CHANNELS 3 Zrotation Xrotation Yrotation
              End Site
              {
                OFFSET -15 0 0
              }
            }
          }
        }
      }
      JOINT left_manubrium
      {
        OFFSET 5.722621 16.35077 3.967754
        CHANNELS 3 Zrotation Xrotation Yrotation
        JOINT left_clavicle
        {
          OFFSET 13.16364 1.694482 -4.693211
          CHANNELS 3 Zrotation Xrotation Yrotation
          JOINT left_humerus
          {
            OFFSET 29.39168 -1.063119 -2.237045
            CHANNELS 3 Zrotation Xrotation Yrotation
            JOINT left_radius
            {
              OFFSET 24.59957 -0.9528479 0.9047498
              CHANNELS 3 Zrotation Xrotation Yrotation
              End Site
              {
                OFFSET 15 -0 -0
              }
            }
          }
        }
      }
    }
  }
}
MOTION
Frames: 9
Frame Time: 0.0416666666667
-596.0832 103.2133 3168.03 -1.943095 -7.97773 -23.31604 0.3067507 -8.692436 2.38789 -0 46.61017 -0 0.2842849 3.411396 -6.485941 -5.206974 2.621814 -7.92658 -0 17.2895 -0 -2.545768 -14.98539 16.32532 -0.8996285 -0.8971681 5.866785 0.4972809 13.63271 -7.330739 -0.8099202 21.84671 6.383082 6.960272 -18.52886 2.383933 0.3365131 -21.49248 12.60675 90.60585 25.4703 -20.70708 -0 0 16.76641 -21.32067 4.183775 2.18337 8.152515 -27.63892 -10.04996 -89.15668 6.718248 18.36397 0 0 -14.07283 19.05657 10.39596 -16.2325
-597.9837 103.1974 3173.575 -1.798543 -7.702104 -22.35926 0.03940959 -14.27917 1.435219 -0 38.98326 -0 -0.09622248 1.724695 -7.174182 -5.130053 6.992858 -7.939055 -0 15.40997 -0 -3.352137 -17.00141 15.19683 -0.8559854 -0.8590008 5.467742 0.6216617 13.20612 -7.572683 -0.7140836 22.07125 6.687431 6.901916 -19.27062 2.917448 -0.373187 -20.50029 12.47078 91.93865 25.42597 -22.33465 -0 0 14.51359 -21.32617 3.540636 1.468303 8.81113 -28.17187 -9.646372 -87.99867 6.885084 15.31775 0 0 -17.51571 19.98097 10.23884 -17.69173
-600.0289 102.5853 3179.166 -1.623346 -7.37786 -21.56816 -0.153003 -18.94233 0.5673893 -0 30.1584 -0 -0.2333398 -0.01258178 -7.701591 -5.070129 10.80408 -7.940388 -0 14.41671 -0 -4.348164 -18.88503 14.35537 -0.8352921 -0.8542952 5.110114 0.6891897 12.81072 -7.749742 -0.6328019 22.24194 6.998102 6.911234 -19.8492 3.384978 -0.9320096 -19.58921 12.34905 93.01211 25.43406 -23.6815 -0 0 12.58194 -21.37673 3.048181 0.9346431 9.441624 -28.65577 -9.288058 -86.96925 6.937904 12.55048 0 0 -20.69216 20.80124 10.07898 -18.95705
-602.2617 101.5245 3184.905 -1.482878 -7.071297 -20.95985 -0.08505363 -22.52076 0.01450062 -0 22.04522 -0 -0.1953417 -1.451322 -8.124012 -5.020223 14.0878 -7.951837 -0 14.63093 -0 -5.215946 -20.23224 13.86811 -0.8397267 -0.8727244 4.824101 0.7086286 12.48706 -7.859263 -0.5752938 22.35029 7.283576 6.980069 -20.23472 3.743097 -1.297546 -18.84022 12.25232 93.75485 25.49699 -24.67131 -0 0 11.11623 -21.44734 2.71828 0.5881878 9.979029 -29.05207 -9.016675 -86.15695 6.899411 10.31251 0 0 -23.29935 21.4591 9.925346 -19.94546
-604.7126 100.2637 3190.853 -1.438286 -6.840664 -20.51478 0.3607681 -24.79762 -0.02751242 -0 16.07307 -0 -0.135987 -2.359569 -8.477194 -4.929022 16.80671 -8.0058 -0 16.36561 -0 -5.852311 -20.69644 13.72757 -0.8603667 -0.8943922 4.641185 0.7016151 12.27287 -7.909329 -0.5463168 22.40242 7.494434 7.07028 -20.43384 3.958882 -1.472253 -18.34464 12.19022 94.14753 25.58892 -25.25346 -0 0 10.23145 -21.50722 2.533255 0.40213 10.34847 -29.3119 -8.857075 -85.64725 6.823215 8.864177 0 0 -24.99475 21.89575 9.799585 -20.58872
-607.3962 99.10267 3197.036 -1.55245 -6.737492 -20.21466 1.216621 -25.49343 0.540582 -0 13.04091 -0 -0.1958178 -2.782786 -8.781563 -4.72014 18.80411 -8.133021 -0 19.86994 -0 -6.43115 -20.0521 13.82429 -0.8837621 -0.8976849 4.591005 0.691228 12.19953 -7.910871 -0.5493471 22.41056 7.580528 7.138257 -20.46763 4.006708 -1.477858 -18.1861 12.17194 94.19541 25.67233 -25.3947 -0 0 10.01888 -21.53054 2.460481 0.334724 10.48451 -29.38923 -8.823043 -85.51702 6.765062 8.438383 0 0 -25.45227 22.06083 9.724469 -20.83887
-610.2974 98.32492 3203.419 -1.860155 -6.79473 -20.0754 2.388235 -24.41765 1.653087 -0 12.9245 -0 -0.4029447 -3.052087 -9.049037 -4.349134 19.79812 -8.283915 -0 25.19428 -0 -7.1788 -18.2688 14.02724 -0.9042825 -0.8707906 4.691574 0.6885608 12.28189 -7.867971 -0.5881165 22.38124 7.515574 7.164454 -20.34374 3.869691 -1.322858 -18.41053 12.20288 93.89279 25.73031 -25.06985 -0 0 10.53999 -21.50437 2.477025 0.3596587 10.356 -29.25772 -8.921894 -85.81462 6.747207 9.166213 0 0 -24.47879 21.93057 9.707815 -20.67871
-613.3593 98.12333 3209.917 -2.318399 -7.023008 -20.15305 3.636068 -21.65646 3.055473 -0 14.77915 -0 -0.6629602 -3.528121 -9.26969 -3.874707 19.41925 -8.289012 -0 32.09881 -0 -8.045168 -15.60064 14.32126 -0.9270607 -0.8200333 4.93329 0.6884317 12.50333 -7.77881 -0.6610273 22.31374 7.311085 7.157184 -20.05906 3.557612 -1.009964 -18.9917 12.27847 93.24271 25.77334 -24.28814 -0 0 11.76682 -21.43132 2.582876 0.481216 9.986153 -28.92786 -9.14234 -86.51744 6.747372 10.96699 0 0 -22.17349 21.52655 9.74128 -20.13746
-616.4843 98.543 3216.404 -2.796874 -7.427927 -20.50624 4.64877 -17.58969 4.376942 -0 17.07993 -0 -0.8876802 -4.314846 -9.36623 -3.444268 17.30036 -8.007354 -0 40.00861 -0 -8.687738 -12.61835 14.80226 -0.9546899 -0.7668187 5.27189 0.679601 12.81466 -7.649811 -0.7535949 22.21054 7.006573 7.125365 -19.63676 3.125796 -0.5819873 -19.82387 12.38269 92.32842 25.80431 -23.1478 -0 0 13.51173 -21.32662 2.788577 0.715161 9.448704 -28.4545 -9.438198 -87.50107 6.728913 13.50179 0 0 -18.99445 20.91488 9.816302 -19.29368
